<svg width="113" height="38" viewBox="0 0 113 38" fill="none" xmlns="http://www.w3.org/2000/svg">
<path d="M21.474 30.506C21.509 27.0181 20.6015 24.1818 19.4471 24.1708C18.2926 24.1599 17.3284 26.9784 17.2935 30.4662C17.2584 33.9541 18.166 36.7905 19.3204 36.8014C20.4748 36.8124 21.4391 33.9939 21.474 30.506Z" fill="black"/>
<path d="M14.7787 29.7139C16.7436 26.7982 17.5541 23.9341 16.589 23.3167C15.6239 22.6992 13.2488 24.5623 11.2839 27.478C9.31905 30.3936 8.50855 33.2577 9.47357 33.8752C10.4387 34.4926 12.8138 32.6295 14.7787 29.7139Z" fill="black"/>
<path d="M9.57778 25.5307C12.8486 24.1131 15.1198 22.1307 14.6505 21.1029C14.1813 20.0751 11.1495 20.3911 7.87863 21.8087C4.60781 23.2263 2.33666 25.2087 2.80587 26.2365C3.27507 27.2643 6.30696 26.9483 9.57778 25.5307Z" fill="black"/>
<path d="M14.2579 18.2206C14.4336 17.1088 11.7077 15.7774 8.16964 15.2467C4.63146 14.7161 1.62087 15.1873 1.44524 16.2991C1.26962 17.4109 3.99547 18.7423 7.53361 19.2729C11.0717 19.8035 14.0823 19.3323 14.2579 18.2206Z" fill="black"/>
<path d="M15.5282 15.572C16.2928 14.7292 14.7381 12.1734 12.0558 9.86349C9.37342 7.55364 6.57916 6.36442 5.81462 7.20731C5.05008 8.05021 6.60477 10.606 9.28715 12.9159C11.9695 15.2257 14.7638 16.4149 15.5282 15.572Z" fill="black"/>
<path d="M18.0581 14.0241C19.169 13.7178 19.2793 10.7487 18.3047 7.39253C17.33 4.0363 15.6392 1.56384 14.5284 1.87013C13.4175 2.17642 13.3071 5.14546 14.2818 8.50172C15.2565 11.8579 16.9472 14.3304 18.0581 14.0241Z" fill="black"/>
<path d="M24.9276 8.60616C25.97 5.2693 25.9198 2.2987 24.8153 1.97113C23.7108 1.64356 21.9704 4.08305 20.928 7.4199C19.8856 10.7567 19.9358 13.7273 21.0403 14.0549C22.1448 14.3825 23.8852 11.943 24.9276 8.60616Z" fill="black"/>
<path d="M29.8361 13.1149C32.5643 10.8566 34.17 8.33089 33.4225 7.47363C32.675 6.61635 29.8574 7.75215 27.1293 10.0104C24.4011 12.2688 22.7954 14.7945 23.5429 15.6517C24.2904 16.509 27.108 15.3733 29.8361 13.1149Z" fill="black"/>
<path d="M31.4591 19.4955C35.0074 19.0329 37.7596 17.7542 37.6065 16.6392C37.4534 15.5242 34.4529 14.9954 30.9047 15.4578C27.3566 15.9204 24.6043 17.1991 24.7574 18.3141C24.9105 19.429 27.9109 19.958 31.4591 19.4955Z" fill="black"/>
<path d="M36.0363 26.5552C36.5262 25.5366 34.2957 23.511 31.0541 22.0308C27.8127 20.5506 24.7878 20.1765 24.2979 21.195C23.8079 22.2137 26.0385 24.2393 29.28 25.7195C32.5215 27.1996 35.5464 27.5738 36.0363 26.5552Z" fill="black"/>
<path d="M29.2179 34.0707C30.1953 33.472 29.4429 30.5928 27.5374 27.64C25.632 24.6871 23.2949 22.7788 22.3176 23.3776C21.3402 23.9763 22.0926 26.8555 23.9981 29.8083C25.9036 32.7611 28.2406 34.6695 29.2179 34.0707Z" fill="black"/>
<path d="M47.2617 9.875C47.2617 10.1562 47.1797 10.3867 47.0156 10.5664C46.8594 10.7461 46.6445 10.8672 46.3711 10.9297C45.9336 11.0234 45.4844 11.0742 45.0234 11.082C44.5703 11.082 44.1211 11.0938 43.6758 11.1172V13.4375C43.6758 15.4062 43.7344 17.3711 43.8516 19.332C43.9766 21.2852 44.1758 23.2422 44.4492 25.2031C44.4727 25.3203 44.4961 25.4375 44.5195 25.5547C44.5508 25.6719 44.5664 25.7891 44.5664 25.9062C44.5664 26.0938 44.5156 26.2305 44.4141 26.3164C44.3203 26.4023 44.1836 26.4453 44.0039 26.4453C43.8633 26.4453 43.6875 26.4258 43.4766 26.3867C43.2734 26.3555 43.1133 26.3047 42.9961 26.2344C42.8398 26.1406 42.7383 26.0469 42.6914 25.9531C42.6523 25.8516 42.6211 25.7188 42.5977 25.5547C42.5117 25 42.4531 24.4453 42.4219 23.8906C42.3906 23.3359 42.3555 22.7812 42.3164 22.2266C42.2227 21.0391 42.1445 19.8555 42.082 18.6758C42.0195 17.4961 41.9883 16.3125 41.9883 15.125C41.9883 14.4766 41.9922 13.832 42 13.1914C42.0078 12.5508 42.0117 11.8984 42.0117 11.2344C41.5273 11.2812 41.0391 11.3281 40.5469 11.375C40.0625 11.4219 39.5742 11.4453 39.082 11.4453C38.9648 11.4453 38.8711 11.418 38.8008 11.3633C38.7227 11.3008 38.6836 11.2109 38.6836 11.0938C38.6836 10.8203 38.7734 10.6094 38.9531 10.4609C39.1328 10.3047 39.3477 10.1953 39.5977 10.1328C39.9961 10.0469 40.4023 9.99219 40.8164 9.96875C41.2305 9.9375 41.6445 9.89844 42.0586 9.85156C42.0586 9.77344 42.0625 9.69922 42.0703 9.62891C42.0781 9.55078 42.0938 9.48438 42.1172 9.42969C42.1484 9.36719 42.1914 9.31641 42.2461 9.27734C42.3008 9.23828 42.3789 9.21875 42.4805 9.21875C42.668 9.21875 42.8594 9.26172 43.0547 9.34766C43.25 9.43359 43.4023 9.55469 43.5117 9.71094L45.457 9.5C45.6445 9.47656 45.832 9.45312 46.0195 9.42969C46.207 9.39844 46.3945 9.38281 46.582 9.38281C46.668 9.38281 46.75 9.38672 46.8281 9.39453C46.9141 9.40234 46.9883 9.42578 47.0508 9.46484C47.1133 9.49609 47.1641 9.54688 47.2031 9.61719C47.2422 9.67969 47.2617 9.76562 47.2617 9.875ZM56.9766 25.9531C56.9766 26.0469 56.9297 26.125 56.8359 26.1875C56.7422 26.25 56.6289 26.3008 56.4961 26.3398C56.3711 26.3789 56.2422 26.4062 56.1094 26.4219C55.9844 26.4375 55.8906 26.4453 55.8281 26.4453C55.6719 26.4453 55.543 26.4297 55.4414 26.3984C55.3477 26.375 55.2344 26.3281 55.1016 26.2578C55.0625 26.2344 54.9688 26.1367 54.8203 25.9648C54.6797 25.7852 54.5 25.5547 54.2812 25.2734C54.0703 24.9922 53.8281 24.6719 53.5547 24.3125C53.2891 23.9531 53.0117 23.5859 52.7227 23.2109C52.4414 22.8281 52.1602 22.4492 51.8789 22.0742C51.6055 21.6914 51.3516 21.3438 51.1172 21.0312C50.8828 20.7109 50.6797 20.4336 50.5078 20.1992C50.3438 19.957 50.2266 19.7891 50.1562 19.6953L50.0859 19.7188C50.1328 20.6484 50.1914 21.5781 50.2617 22.5078C50.3398 23.4297 50.4688 24.3438 50.6484 25.25C50.6719 25.3438 50.6953 25.4414 50.7188 25.543C50.75 25.6445 50.7656 25.75 50.7656 25.8594C50.7656 26.0391 50.707 26.1523 50.5898 26.1992C50.4727 26.2539 50.3438 26.2812 50.2031 26.2812C50.125 26.2812 50.0312 26.2773 49.9219 26.2695C49.8125 26.2617 49.6992 26.2461 49.582 26.2227C49.4648 26.1992 49.3555 26.168 49.2539 26.1289C49.1602 26.0977 49.0859 26.0547 49.0312 26C48.9219 25.9062 48.8516 25.8086 48.8203 25.707C48.7969 25.6055 48.7734 25.4844 48.75 25.3438C48.5234 23.7734 48.3789 22.1992 48.3164 20.6211C48.2617 19.0352 48.2344 17.4531 48.2344 15.875C48.2344 15.1875 48.2383 14.5117 48.2461 13.8477C48.2539 13.1836 48.2656 12.5078 48.2812 11.8203C48.1875 11.8125 48.0977 11.7812 48.0117 11.7266C47.9336 11.6719 47.8633 11.6055 47.8008 11.5273C47.7383 11.4414 47.6875 11.3555 47.6484 11.2695C47.6172 11.1758 47.6016 11.0859 47.6016 11C47.6016 10.9141 47.6211 10.8281 47.6602 10.7422C47.707 10.6562 47.7617 10.5781 47.8242 10.5078C47.8945 10.4375 47.9688 10.3711 48.0469 10.3086C48.125 10.2461 48.1953 10.1953 48.2578 10.1562V9.94531C48.2578 9.86719 48.2578 9.77734 48.2578 9.67578C48.2656 9.57422 48.2812 9.48047 48.3047 9.39453C48.3359 9.30078 48.3828 9.22656 48.4453 9.17188C48.5078 9.10938 48.6016 9.07812 48.7266 9.07812C48.8906 9.07812 49.0547 9.10547 49.2188 9.16016C49.3828 9.21484 49.5234 9.3125 49.6406 9.45312C50.2266 9.21875 50.8438 9.10156 51.4922 9.10156C52.0625 9.10156 52.582 9.21484 53.0508 9.44141C53.5195 9.66797 53.918 9.97266 54.2461 10.3555C54.582 10.7383 54.8398 11.1797 55.0195 11.6797C55.1992 12.1797 55.2891 12.7031 55.2891 13.25C55.2891 13.8359 55.1797 14.4062 54.9609 14.9609C54.7422 15.5078 54.457 16.0273 54.1055 16.5195C53.7539 17.0117 53.3516 17.4648 52.8984 17.8789C52.4531 18.2852 52 18.6406 51.5391 18.9453C52.2734 19.9219 53.0156 20.8906 53.7656 21.8516C54.5234 22.8047 55.2969 23.7578 56.0859 24.7109C56.1328 24.7656 56.2031 24.8477 56.2969 24.957C56.3984 25.0664 56.5 25.1875 56.6016 25.3203C56.7031 25.4453 56.7891 25.5664 56.8594 25.6836C56.9375 25.8008 56.9766 25.8906 56.9766 25.9531ZM53.5547 13.0625C53.5547 12.7734 53.5039 12.4727 53.4023 12.1602C53.3008 11.8477 53.1562 11.5664 52.9688 11.3164C52.7812 11.0586 52.5547 10.8477 52.2891 10.6836C52.0312 10.5195 51.7422 10.4375 51.4219 10.4375C51.1641 10.4375 50.9062 10.4766 50.6484 10.5547C50.3984 10.625 50.1562 10.7188 49.9219 10.8359C49.9375 12 49.9492 13.1641 49.957 14.3281C49.9727 15.4922 49.9922 16.6562 50.0156 17.8203L50.2266 17.8438C50.6328 17.6172 51.0312 17.332 51.4219 16.9883C51.8203 16.6445 52.1758 16.2617 52.4883 15.8398C52.8086 15.418 53.0664 14.9727 53.2617 14.5039C53.457 14.0273 53.5547 13.5469 53.5547 13.0625ZM63.832 24.3125C63.832 24.5391 63.7734 24.7539 63.6562 24.957C63.5391 25.1523 63.3789 25.2969 63.1758 25.3906C63.1133 25.4219 62.9609 25.4531 62.7188 25.4844C62.4766 25.5078 62.2148 25.5312 61.9336 25.5547C61.6523 25.5781 61.3828 25.6016 61.125 25.625C60.875 25.6484 60.6992 25.6641 60.5977 25.6719C60.5742 25.8047 60.5117 25.8984 60.4102 25.9531C60.3086 26 60.1992 26.0234 60.082 26.0234C59.9492 26.0234 59.7969 26.0039 59.625 25.9648C59.4531 25.9258 59.3008 25.8828 59.168 25.8359C58.8164 25.8828 58.4609 25.9336 58.1016 25.9883C57.7422 26.043 57.3789 26.0703 57.0117 26.0703C56.7305 26.0703 56.5898 25.9375 56.5898 25.6719C56.5898 25.4062 56.6641 25.2031 56.8125 25.0625C56.9609 24.9219 57.1406 24.8164 57.3516 24.7461C57.5625 24.6758 57.7891 24.6289 58.0312 24.6055C58.2734 24.582 58.4883 24.5547 58.6758 24.5234C58.6367 22.3047 58.5938 20.1016 58.5469 17.9141C58.5078 15.7266 58.4883 13.5234 58.4883 11.3047C58.168 11.3281 57.8555 11.3516 57.5508 11.375C57.2461 11.3906 56.9414 11.3984 56.6367 11.3984C56.5742 11.3984 56.5078 11.3984 56.4375 11.3984C56.3672 11.3906 56.3008 11.3789 56.2383 11.3633C56.1836 11.3398 56.1367 11.3086 56.0977 11.2695C56.0508 11.2227 56.0273 11.1562 56.0273 11.0703C56.0273 10.9219 56.0586 10.793 56.1211 10.6836C56.1836 10.5664 56.2656 10.4727 56.3672 10.4023C56.4766 10.3242 56.5938 10.2617 56.7188 10.2148C56.8438 10.168 56.9727 10.1328 57.1055 10.1094C57.4414 10.0469 57.7812 9.99609 58.125 9.95703C58.4766 9.91016 58.8242 9.86719 59.168 9.82812C59.5195 9.78125 59.8672 9.73438 60.2109 9.6875C60.5625 9.64062 60.9102 9.57812 61.2539 9.5C61.582 9.42969 61.9102 9.33984 62.2383 9.23047C62.5664 9.11328 62.9023 9.05469 63.2461 9.05469C63.4336 9.05469 63.5586 9.125 63.6211 9.26562C63.6836 9.39844 63.7148 9.54688 63.7148 9.71094C63.7148 9.84375 63.6992 9.97266 63.668 10.0977C63.6445 10.2148 63.5898 10.3281 63.5039 10.4375C63.457 10.5 63.3516 10.5625 63.1875 10.625C63.0312 10.6797 62.8398 10.7305 62.6133 10.7773C62.3945 10.8242 62.1562 10.8711 61.8984 10.918C61.6484 10.957 61.4023 10.9961 61.1602 11.0352C60.9258 11.0664 60.7109 11.0938 60.5156 11.1172C60.3203 11.1406 60.1758 11.1562 60.082 11.1641C60.168 12.25 60.2266 13.3359 60.2578 14.4219C60.2969 15.5078 60.3281 16.5938 60.3516 17.6797C60.375 18.7656 60.3984 19.8516 60.4219 20.9375C60.4453 22.0234 60.4883 23.1094 60.5508 24.1953C60.9961 24.125 61.4453 24.0586 61.8984 23.9961C62.3516 23.9258 62.8086 23.8906 63.2695 23.8906C63.4023 23.8906 63.5273 23.9219 63.6445 23.9844C63.7695 24.0391 63.832 24.1484 63.832 24.3125ZM72.1289 13.3906C72.1289 14.1641 72.0039 14.9414 71.7539 15.7227C71.5117 16.5039 71.168 17.2344 70.7227 17.9141C70.2852 18.5938 69.7578 19.1992 69.1406 19.7305C68.5234 20.2617 67.8477 20.6641 67.1133 20.9375C67.1602 21.5859 67.2148 22.2305 67.2773 22.8711C67.3398 23.5117 67.4258 24.1562 67.5352 24.8047C67.5586 24.9219 67.582 25.043 67.6055 25.168C67.6367 25.293 67.6523 25.4219 67.6523 25.5547C67.6523 25.7578 67.6016 25.8945 67.5 25.9648C67.3984 26.0352 67.2539 26.0703 67.0664 26.0703C66.9336 26.0703 66.7734 26.0547 66.5859 26.0234C66.3984 25.9922 66.2383 25.9453 66.1055 25.8828C65.9492 25.7969 65.8438 25.7109 65.7891 25.625C65.7422 25.5312 65.707 25.4062 65.6836 25.25C65.5508 24.5859 65.4688 23.9219 65.4375 23.2578C65.4141 22.5938 65.3789 21.9297 65.332 21.2656C65.1758 21.25 65.0469 21.2109 64.9453 21.1484C64.8438 21.0781 64.793 20.9609 64.793 20.7969C64.793 20.6406 64.8359 20.4766 64.9219 20.3047C65.0156 20.1328 65.1211 20 65.2383 19.9062C65.168 18.4531 65.1367 17.0117 65.1445 15.582C65.1602 14.1523 65.1602 12.7109 65.1445 11.2578C65.1055 11.2734 65.0703 11.2852 65.0391 11.293C65.0078 11.3008 64.9727 11.3047 64.9336 11.3047C64.8477 11.3047 64.7773 11.2852 64.7227 11.2461C64.668 11.1992 64.6211 11.1445 64.582 11.082C64.5508 11.0195 64.5273 10.9531 64.5117 10.8828C64.4961 10.8047 64.4883 10.7344 64.4883 10.6719C64.4883 10.4375 64.5469 10.2695 64.6641 10.168C64.7812 10.0586 64.9414 9.96094 65.1445 9.875C65.1445 9.78906 65.1445 9.69141 65.1445 9.58203C65.1523 9.46484 65.168 9.35938 65.1914 9.26562C65.2227 9.16406 65.2695 9.08203 65.332 9.01953C65.3945 8.94922 65.4883 8.91406 65.6133 8.91406C65.8164 8.91406 66.0117 8.95312 66.1992 9.03125C66.3867 9.10938 66.5273 9.24219 66.6211 9.42969C66.8945 9.38281 67.1602 9.33984 67.418 9.30078C67.6758 9.26172 67.9414 9.24219 68.2148 9.24219C68.832 9.24219 69.3828 9.34766 69.8672 9.55859C70.3516 9.76172 70.7617 10.0508 71.0977 10.4258C71.4336 10.793 71.6875 11.2305 71.8594 11.7383C72.0391 12.2461 72.1289 12.7969 72.1289 13.3906ZM70.3711 13.1797C70.3711 12.8203 70.3242 12.4844 70.2305 12.1719C70.1367 11.8516 69.9961 11.5781 69.8086 11.3516C69.6211 11.1172 69.3828 10.9336 69.0938 10.8008C68.8047 10.668 68.4648 10.6016 68.0742 10.6016C67.8633 10.6016 67.6484 10.6172 67.4297 10.6484C67.2188 10.6797 67.0117 10.7266 66.8086 10.7891C66.8086 12.2188 66.8164 13.6367 66.832 15.043C66.8555 16.4492 66.9102 17.8594 66.9961 19.2734C67.4961 19.0156 67.9531 18.6562 68.3672 18.1953C68.7812 17.7344 69.1367 17.2266 69.4336 16.6719C69.7305 16.1094 69.9609 15.5273 70.125 14.9258C70.2891 14.3164 70.3711 13.7344 70.3711 13.1797ZM80.4961 13.3906C80.4961 14.1641 80.3711 14.9414 80.1211 15.7227C79.8789 16.5039 79.5352 17.2344 79.0898 17.9141C78.6523 18.5938 78.125 19.1992 77.5078 19.7305C76.8906 20.2617 76.2148 20.6641 75.4805 20.9375C75.5273 21.5859 75.582 22.2305 75.6445 22.8711C75.707 23.5117 75.793 24.1562 75.9023 24.8047C75.9258 24.9219 75.9492 25.043 75.9727 25.168C76.0039 25.293 76.0195 25.4219 76.0195 25.5547C76.0195 25.7578 75.9688 25.8945 75.8672 25.9648C75.7656 26.0352 75.6211 26.0703 75.4336 26.0703C75.3008 26.0703 75.1406 26.0547 74.9531 26.0234C74.7656 25.9922 74.6055 25.9453 74.4727 25.8828C74.3164 25.7969 74.2109 25.7109 74.1562 25.625C74.1094 25.5312 74.0742 25.4062 74.0508 25.25C73.918 24.5859 73.8359 23.9219 73.8047 23.2578C73.7812 22.5938 73.7461 21.9297 73.6992 21.2656C73.543 21.25 73.4141 21.2109 73.3125 21.1484C73.2109 21.0781 73.1602 20.9609 73.1602 20.7969C73.1602 20.6406 73.2031 20.4766 73.2891 20.3047C73.3828 20.1328 73.4883 20 73.6055 19.9062C73.5352 18.4531 73.5039 17.0117 73.5117 15.582C73.5273 14.1523 73.5273 12.7109 73.5117 11.2578C73.4727 11.2734 73.4375 11.2852 73.4062 11.293C73.375 11.3008 73.3398 11.3047 73.3008 11.3047C73.2148 11.3047 73.1445 11.2852 73.0898 11.2461C73.0352 11.1992 72.9883 11.1445 72.9492 11.082C72.918 11.0195 72.8945 10.9531 72.8789 10.8828C72.8633 10.8047 72.8555 10.7344 72.8555 10.6719C72.8555 10.4375 72.9141 10.2695 73.0312 10.168C73.1484 10.0586 73.3086 9.96094 73.5117 9.875C73.5117 9.78906 73.5117 9.69141 73.5117 9.58203C73.5195 9.46484 73.5352 9.35938 73.5586 9.26562C73.5898 9.16406 73.6367 9.08203 73.6992 9.01953C73.7617 8.94922 73.8555 8.91406 73.9805 8.91406C74.1836 8.91406 74.3789 8.95312 74.5664 9.03125C74.7539 9.10938 74.8945 9.24219 74.9883 9.42969C75.2617 9.38281 75.5273 9.33984 75.7852 9.30078C76.043 9.26172 76.3086 9.24219 76.582 9.24219C77.1992 9.24219 77.75 9.34766 78.2344 9.55859C78.7188 9.76172 79.1289 10.0508 79.4648 10.4258C79.8008 10.793 80.0547 11.2305 80.2266 11.7383C80.4062 12.2461 80.4961 12.7969 80.4961 13.3906ZM78.7383 13.1797C78.7383 12.8203 78.6914 12.4844 78.5977 12.1719C78.5039 11.8516 78.3633 11.5781 78.1758 11.3516C77.9883 11.1172 77.75 10.9336 77.4609 10.8008C77.1719 10.668 76.832 10.6016 76.4414 10.6016C76.2305 10.6016 76.0156 10.6172 75.7969 10.6484C75.5859 10.6797 75.3789 10.7266 75.1758 10.7891C75.1758 12.2188 75.1836 13.6367 75.1992 15.043C75.2227 16.4492 75.2773 17.8594 75.3633 19.2734C75.8633 19.0156 76.3203 18.6562 76.7344 18.1953C77.1484 17.7344 77.5039 17.2266 77.8008 16.6719C78.0977 16.1094 78.3281 15.5273 78.4922 14.9258C78.6562 14.3164 78.7383 13.7344 78.7383 13.1797ZM88.3477 24.3125C88.3477 24.5391 88.2891 24.7539 88.1719 24.957C88.0547 25.1523 87.8945 25.2969 87.6914 25.3906C87.6289 25.4219 87.4766 25.4531 87.2344 25.4844C86.9922 25.5078 86.7305 25.5312 86.4492 25.5547C86.168 25.5781 85.8984 25.6016 85.6406 25.625C85.3906 25.6484 85.2148 25.6641 85.1133 25.6719C85.0898 25.8047 85.0273 25.8984 84.9258 25.9531C84.8242 26 84.7148 26.0234 84.5977 26.0234C84.4648 26.0234 84.3125 26.0039 84.1406 25.9648C83.9688 25.9258 83.8164 25.8828 83.6836 25.8359C83.332 25.8828 82.9766 25.9336 82.6172 25.9883C82.2578 26.043 81.8945 26.0703 81.5273 26.0703C81.2461 26.0703 81.1055 25.9375 81.1055 25.6719C81.1055 25.4062 81.1797 25.2031 81.3281 25.0625C81.4766 24.9219 81.6562 24.8164 81.8672 24.7461C82.0781 24.6758 82.3047 24.6289 82.5469 24.6055C82.7891 24.582 83.0039 24.5547 83.1914 24.5234C83.1523 22.3047 83.1094 20.1016 83.0625 17.9141C83.0234 15.7266 83.0039 13.5234 83.0039 11.3047C82.6836 11.3281 82.3711 11.3516 82.0664 11.375C81.7617 11.3906 81.457 11.3984 81.1523 11.3984C81.0898 11.3984 81.0234 11.3984 80.9531 11.3984C80.8828 11.3906 80.8164 11.3789 80.7539 11.3633C80.6992 11.3398 80.6523 11.3086 80.6133 11.2695C80.5664 11.2227 80.543 11.1562 80.543 11.0703C80.543 10.9219 80.5742 10.793 80.6367 10.6836C80.6992 10.5664 80.7812 10.4727 80.8828 10.4023C80.9922 10.3242 81.1094 10.2617 81.2344 10.2148C81.3594 10.168 81.4883 10.1328 81.6211 10.1094C81.957 10.0469 82.2969 9.99609 82.6406 9.95703C82.9922 9.91016 83.3398 9.86719 83.6836 9.82812C84.0352 9.78125 84.3828 9.73438 84.7266 9.6875C85.0781 9.64062 85.4258 9.57812 85.7695 9.5C86.0977 9.42969 86.4258 9.33984 86.7539 9.23047C87.082 9.11328 87.418 9.05469 87.7617 9.05469C87.9492 9.05469 88.0742 9.125 88.1367 9.26562C88.1992 9.39844 88.2305 9.54688 88.2305 9.71094C88.2305 9.84375 88.2148 9.97266 88.1836 10.0977C88.1602 10.2148 88.1055 10.3281 88.0195 10.4375C87.9727 10.5 87.8672 10.5625 87.7031 10.625C87.5469 10.6797 87.3555 10.7305 87.1289 10.7773C86.9102 10.8242 86.6719 10.8711 86.4141 10.918C86.1641 10.957 85.918 10.9961 85.6758 11.0352C85.4414 11.0664 85.2266 11.0938 85.0312 11.1172C84.8359 11.1406 84.6914 11.1562 84.5977 11.1641C84.6836 12.25 84.7422 13.3359 84.7734 14.4219C84.8125 15.5078 84.8438 16.5938 84.8672 17.6797C84.8906 18.7656 84.9141 19.8516 84.9375 20.9375C84.9609 22.0234 85.0039 23.1094 85.0664 24.1953C85.5117 24.125 85.9609 24.0586 86.4141 23.9961C86.8672 23.9258 87.3242 23.8906 87.7852 23.8906C87.918 23.8906 88.043 23.9219 88.1602 23.9844C88.2852 24.0391 88.3477 24.1484 88.3477 24.3125ZM96.7031 25.0391C96.7031 25.1797 96.6875 25.3203 96.6562 25.4609C96.6328 25.5938 96.5859 25.7148 96.5156 25.8242C96.4531 25.9258 96.3672 26.0078 96.2578 26.0703C96.1484 26.1328 96.0078 26.1641 95.8359 26.1641C95.625 26.1641 95.4531 26.1172 95.3203 26.0234C95.1953 25.9375 95.0781 25.8125 94.9688 25.6484C94.8203 25.4375 94.6875 25.1953 94.5703 24.9219C94.4531 24.6406 94.3477 24.3555 94.2539 24.0664C94.1602 23.7695 94.0703 23.4766 93.9844 23.1875C93.9062 22.8906 93.8281 22.6172 93.75 22.3672C93.3281 21.0547 92.9336 19.7461 92.5664 18.4414C92.207 17.1367 91.8203 15.8281 91.4062 14.5156C91.3672 16.2109 91.3359 17.8984 91.3125 19.5781C91.2969 21.2578 91.2891 22.9453 91.2891 24.6406C91.2891 24.7266 91.2852 24.8242 91.2773 24.9336C91.2695 25.043 91.25 25.1484 91.2188 25.25C91.1875 25.3438 91.1367 25.4258 91.0664 25.4961C91.0039 25.5664 90.9141 25.6016 90.7969 25.6016C90.3984 25.6016 90.0938 25.4961 89.8828 25.2852C89.6797 25.0664 89.5781 24.7578 89.5781 24.3594C89.5781 22.1641 89.582 19.9883 89.5898 17.832C89.5977 15.6758 89.6016 13.5078 89.6016 11.3281V9.66406C89.6016 9.48438 89.6328 9.33594 89.6953 9.21875C89.7656 9.09375 89.9141 9.03125 90.1406 9.03125C90.2969 9.03125 90.457 9.05469 90.6211 9.10156C90.7852 9.14062 90.9297 9.20312 91.0547 9.28906C91.1875 9.375 91.293 9.48828 91.3711 9.62891C91.457 9.76172 91.5 9.92188 91.5 10.1094C91.8281 10.7344 92.1016 11.3789 92.3203 12.043C92.5469 12.707 92.7656 13.375 92.9766 14.0469C93.2812 15.0234 93.582 16 93.8789 16.9766C94.1758 17.9531 94.4766 18.9375 94.7812 19.9297C94.7344 18.4531 94.6836 16.9805 94.6289 15.5117C94.582 14.0352 94.4844 12.5625 94.3359 11.0938C94.2969 10.7734 94.25 10.4609 94.1953 10.1562C94.1484 9.85156 94.125 9.53906 94.125 9.21875C94.125 9.05469 94.1797 8.94531 94.2891 8.89062C94.3984 8.82812 94.5234 8.79688 94.6641 8.79688C94.9062 8.79688 95.1133 8.81641 95.2852 8.85547C95.457 8.89453 95.6016 8.96094 95.7188 9.05469C95.8359 9.14844 95.9258 9.27734 95.9883 9.44141C96.0508 9.59766 96.1016 9.79688 96.1406 10.0391C96.1875 10.4609 96.2227 10.8867 96.2461 11.3164C96.2773 11.7383 96.3047 12.1562 96.3281 12.5703C96.3984 13.6172 96.4492 14.6562 96.4805 15.6875C96.5117 16.7188 96.5391 17.7578 96.5625 18.8047C96.5859 19.8438 96.6133 20.8828 96.6445 21.9219C96.6836 22.9531 96.7031 23.9922 96.7031 25.0391ZM100.066 10.8125C100.066 11.2969 99.9883 11.7656 99.832 12.2188C99.6758 12.6641 99.457 13.0859 99.1758 13.4844C99.1367 13.5312 99.0938 13.5898 99.0469 13.6602C99.0078 13.7227 98.9609 13.7852 98.9062 13.8477C98.8516 13.9023 98.793 13.9492 98.7305 13.9883C98.668 14.0273 98.6055 14.0469 98.543 14.0469C98.457 14.0469 98.3555 14.0156 98.2383 13.9531C98.1289 13.8828 98.0234 13.8008 97.9219 13.707C97.8281 13.6133 97.75 13.5117 97.6875 13.4023C97.6172 13.293 97.582 13.1953 97.582 13.1094C97.582 13.0469 97.6055 12.9766 97.6523 12.8984C97.6992 12.8125 97.75 12.7305 97.8047 12.6523C97.8672 12.5664 97.9297 12.4844 97.9922 12.4062C98.0547 12.3281 98.1055 12.2578 98.1445 12.1953C98.2461 12.0156 98.3242 11.8477 98.3789 11.6914C98.4336 11.5352 98.4727 11.3828 98.4961 11.2344C98.5195 11.0781 98.5352 10.9219 98.543 10.7656C98.5586 10.6016 98.582 10.4219 98.6133 10.2266C98.6289 10.0859 98.6719 9.99609 98.7422 9.95703C98.8203 9.91797 98.9258 9.89844 99.0586 9.89844C99.3789 9.89844 99.625 9.96094 99.7969 10.0859C99.9766 10.2031 100.066 10.4453 100.066 10.8125Z" fill="#1E1E1E"/>
</svg>
